#!OML:ASF \\Waltz\H\Terrain\Patient Classification 1\Animal1\Tuesday\Animal1.ASF
:FULLY-SPECIFIED
:DEGREES
4117
root 9.30644 13.1273 -16.6211 56.0193 -57.8413 -14.4487
lowerback 43.7728 -6.08547 14.1467
upperback 12.9091 -3.88212 -9.70897
thorax -7.47243 -1.72802 -16.512
lowerneck -11.3407 1.38039 5.89917
upperneck -20.7342 2.56775 11.9613
head -4.55179 -0.161543 2.82085
rclavicle -2.3059e-014 6.42074e-014
rhumerus -73.408 27.1356 -127.118
rradius 50.3439
rwrist 6.09091
rhand -38.405 437.091
rfingers 7.12502
rthumb -11.4298 407.422
lclavicle -2.3059e-014 6.42074e-014
lhumerus -81.3987 -32.645 99.6644
lradius 51.8706
lwrist -27.9077
lhand 24.3966 -322.028
lfingers 7.12502
lthumb 48.6066 779.897
rfemur -99.5873 9.42724 25.3254
rtibia 67.9355
rfoot -12.7316 -1.20929
rtoes -25.2392
lfemur -76.084 6.54212 2.52681
ltibia 92.5836
lfoot -22.1249 17.1235
ltoes -5.03709
4118
root 9.29997 13.1337 -16.6217 55.947 -57.6886 -14.441
lowerback 43.8501 -6.29602 14.4169
upperback 12.6875 -4.00525 -9.80732
thorax -7.80737 -1.81842 -16.7195
lowerneck -10.6715 1.3948 5.73698
upperneck -20.7321 2.7315 12.2215
head -4.66205 -0.0943111 2.92362
rclavicle 5.08889e-014 -7.52897e-014
rhumerus -74.1865 26.8559 -127.622
rradius 50.5033
rwrist 6.01756
rhand -38.3979 437.338
rfingers 7.12502
rthumb -11.4231 407.669
lclavicle 5.08889e-014 -7.52897e-014
lhumerus -81.7874 -32.4441 99.5991
lradius 51.7857
lwrist -28.1569
lhand 24.5029 -321.858
lfingers 7.12502
lthumb 48.7044 780.019
rfemur -99.4374 9.35544 25.4989
rtibia 67.9024
rfoot -12.8529 -1.62804
rtoes -25.3593
lfemur -75.9885 6.43684 2.65913
ltibia 92.5149
lfoot -22.0073 17.3257
ltoes -5.96134
4119
root 9.29241 13.1405 -16.6238 56.2592 -57.465 -14.7204
lowerback 44.7104 -6.47314 14.693
upperback 11.5249 -3.84642 -9.92153
thorax -7.96889 -1.73083 -16.5395
lowerneck -10.2321 1.26629 5.13883
upperneck -20.705 2.70695 12.5725
head -4.71938 -0.0828259 3.13056
rclavicle -1.98785e-014 -2.65874e-014
rhumerus -74.4653 26.5742 -127.612
rradius 50.3565
rwrist 6.11538
rhand -38.6443 437.571
rfingers 7.12502
rthumb -11.6607 407.916
lclavicle -1.98785e-014 -2.65874e-014
lhumerus -82.087 -32.4655 99.9064
lradius 51.6614
lwrist -28.3806
lhand 24.4333 -321.596
lfingers 7.12502
lthumb 48.6404 780.313
rfemur -99.3799 9.37987 25.8685
rtibia 67.8417
rfoot -12.9445 -1.69773
rtoes -25.0717
lfemur -75.9907 6.54551 2.93424
ltibia 92.4196
lfoot -22.0861 17.4659
ltoes -7.3205
4120
root 9.28673 13.1401 -16.6228 56.5482 -57.2494 -14.9771
lowerback 44.5771 -6.51889 15.0833
upperback 11.3391 -3.71808 -9.81804
thorax -8.08551 -1.69218 -16.6774
lowerneck -9.60925 1.13849 4.73701
upperneck -20.8925 2.68135 12.7446
head -4.87502 -0.101168 3.25107
rclavicle 2.54444e-014 -7.33267e-014
rhumerus -75.3995 26.6746 -127.717
rradius 50.9381
rwrist 5.92058
rhand -38.7884 437.72
rfingers 7.12502
rthumb -11.7996 408.073
lclavicle 2.54444e-014 -7.33267e-014
lhumerus -82.2475 -32.462 100.122
lradius 51.4628
lwrist -28.5703
lhand 24.5042 -321.54
lfingers 7.12502
lthumb 48.7055 780.337
rfemur -99.3758 9.37999 26.214
rtibia 67.8058
rfoot -12.9832 -1.45612
rtoes -24.435
lfemur -76.0298 6.76457 3.10323
ltibia 92.3474
lfoot -22.1691 17.5148
ltoes -7.82248
4121
root 9.28159 13.1461 -16.619 56.3018 -57.2566 -14.8626
lowerback 44.5525 -6.60873 15.2853
upperback 11.3157 -3.74594 -9.86654
thorax -8.11779 -1.7069 -16.8252
lowerneck -9.033 1.03677 4.48805
upperneck -21.155 2.66528 12.8239
head -5.04922 -0.127652 3.31932
rclavicle -8.74653e-014 4.82053e-014
rhumerus -75.3228 26.389 -127.651
rradius 50.7241
rwrist 6.16773
rhand -38.9089 437.734
rfingers 7.12502
rthumb -11.9158 408.093
lclavicle -8.74653e-014 4.82053e-014
lhumerus -82.2695 -32.4708 100.108
lradius 51.3541
lwrist -28.6751
lhand 24.3531 -321.798
lfingers 7.12502
lthumb 48.5666 780.146
rfemur -99.1741 9.27599 26.258
rtibia 67.7894
rfoot -13.0681 -1.27845
rtoes -24.3969
lfemur -75.8172 6.70928 2.95591
ltibia 92.2317
lfoot -22.364 17.633
ltoes -6.7562
4122
root 9.27708 13.161 -16.6166 55.8497 -57.2818 -14.6596
lowerback 44.6244 -6.69309 15.4314
upperback 11.4317 -3.78669 -9.88963
thorax -8.01205 -1.70745 -16.9017
lowerneck -8.74241 0.944342 4.02165
upperneck -21.4611 2.66571 13.0556
head -5.19255 -0.135243 3.47782
rclavicle 4.21423e-014 -3.66012e-014
rhumerus -74.979 26.3084 -127.486
rradius 50.3946
rwrist 6.21271
rhand -39.0935 437.712
rfingers 7.12502
rthumb -12.0938 408.082
lclavicle 4.21423e-014 -3.66012e-014
lhumerus -82.0435 -32.579 100.026
lradius 51.3336
lwrist -28.7415
lhand 24.4354 -321.802
lfingers 7.12502
lthumb 48.6423 780.106
rfemur -98.7831 9.12541 26.2899
rtibia 67.7507
rfoot -13.1759 -1.30752
rtoes -24.6936
lfemur -75.4236 6.4692 2.78332
ltibia 92.0409
lfoot -22.5742 18.0676
ltoes -7.00542
4123
root 9.2731 13.172 -16.6148 55.5967 -57.2621 -14.4746
lowerback 44.5515 -6.7871 15.4832
upperback 11.4332 -3.88391 -9.90177
thorax -8.02939 -1.7532 -16.8983
lowerneck -8.39879 1.00763 3.94041
upperneck -21.5696 2.81089 13.0517
head -5.2903 -0.0729099 3.48778
rclavicle -8.74653e-015 7.95884e-014
rhumerus -74.6867 26.2305 -127.492
rradius 49.8583
rwrist 6.21912
rhand -39.0711 437.804
rfingers 7.12502
rthumb -12.0722 408.172
lclavicle -8.74653e-015 7.95884e-014
lhumerus -82.0009 -32.4837 99.9318
lradius 51.4302
lwrist -28.7208
lhand 24.8839 -321.454
lfingers 7.12502
lthumb 49.0545 780.252
rfemur -98.6009 9.02002 26.2431
rtibia 67.6933
rfoot -13.1316 -1.24969
rtoes -24.1561
lfemur -75.1517 6.28096 2.6447
ltibia 91.7742
lfoot -22.3503 18.8653
ltoes -10.3024
4124
root 9.2694 13.1789 -16.6123 55.6296 -57.3028 -14.2671
lowerback 43.3309 -6.64787 15.407
upperback 12.1709 -3.99296 -9.58535
thorax -8.23062 -1.87585 -17.0192
lowerneck -8.01632 1.08747 3.86967
upperneck -21.1921 2.927 13.0275
head -5.23689 0.0167407 3.47699
rclavicle -7.39479e-014 -9.19628e-014
rhumerus -75.8539 26.8521 -127.926
rradius 50.3965
rwrist 5.74995
rhand -39.1701 437.737
rfingers 7.12502
rthumb -12.1676 408.111
lclavicle -7.39479e-014 -9.19628e-014
lhumerus -82.1601 -32.0986 99.9464
lradius 51.4041
lwrist -28.7442
lhand 24.8907 -322.502
lfingers 7.12502
lthumb 49.0607 779.2
rfemur -98.7616 8.95503 26.1161
rtibia 67.6021
rfoot -13.0664 -1.08132
rtoes -23.7206
lfemur -75.1577 6.11861 2.55888
ltibia 91.4433
lfoot -22.1061 19.4009
ltoes -12.2984
4125
root 9.26535 13.1929 -16.6095 55.4924 -57.4323 -14.1166
lowerback 43.1295 -6.65501 15.287
upperback 12.1392 -4.07607 -9.61763
thorax -8.24691 -1.91997 -16.959
lowerneck -8.30998 1.02269 3.11317
upperneck -20.4122 2.86799 13.7652
head -4.9383 0.0749408 3.82909
rclavicle 9.70069e-014 -1.85615e-014
rhumerus -75.5873 27.0562 -127.926
rradius 50.0765
rwrist 5.92433
rhand -39.3441 437.521
rfingers 7.12502
rthumb -12.3354 407.905
lclavicle 9.70069e-014 -1.85615e-014
lhumerus -82.1057 -31.9819 99.902
lradius 51.3041
lwrist -28.793
lhand 24.8114 -324.75
lfingers 7.12502
lthumb 48.988 776.989
rfemur -98.6536 8.91855 26.0336
rtibia 67.4526
rfoot -13.1283 -1.01085
rtoes -24.2707
lfemur -74.8738 5.82929 2.53696
ltibia 91.0881
lfoot -22.6123 19.2797
ltoes -10.2425
4126
root 9.26066 13.2156 -16.6036 55.0982 -57.5407 -14.0724
lowerback 43.1848 -6.73616 15.321
upperback 12.2378 -4.17579 -9.70721
thorax -8.19775 -1.95572 -17.0344
lowerneck -8.85184 0.956553 2.50159
upperneck -19.6163 2.76017 14.432
head -4.59219 0.110157 4.13594
rclavicle 3.33958e-014 8.91052e-014
rhumerus -75.6115 27.3661 -127.998
rradius 50.3695
rwrist 5.76947
rhand -39.3349 437.196
rfingers 7.12502
rthumb -12.3266 407.579
lclavicle 3.33958e-014 8.91052e-014
lhumerus -81.9986 -32.1892 99.9362
lradius 51.3159
lwrist -28.6959
lhand 25.0705 -325.82
lfingers 7.12502
lthumb 49.2259 775.8
rfemur -98.1114 8.88011 26.0233
rtibia 67.2595
rfoot -13.1387 -1.02518
rtoes -24.6821
lfemur -74.1924 5.49267 2.55196
ltibia 90.7325
lfoot -23.2601 19.1324
ltoes -8.98399
